<?xml version="1.0" encoding="UTF-8"?>
<!DOCTYPE svg PUBLIC "-//W3C//DTD SVG 1.1//EN" "http://www.w3.org/Graphics/SVG/1.1/DTD/svg11.dtd">
<svg xmlns="http://www.w3.org/2000/svg" version="1.1" width="512px" height="512px" style="shape-rendering:geometricPrecision; text-rendering:geometricPrecision; image-rendering:optimizeQuality; fill-rule:evenodd; clip-rule:evenodd" xmlns:xlink="http://www.w3.org/1999/xlink">
<g><path style="opacity:0.99" fill="#3988ff" d="M 511.5,150.5 C 511.5,162.167 511.5,173.833 511.5,185.5C 508.085,210.592 501.085,234.758 490.5,258C 450.163,258.833 409.829,258.667 369.5,257.5C 355.445,218.391 341.112,179.391 326.5,140.5C 318.27,133.359 310.77,134.026 304,142.5C 279.757,193.986 255.257,245.319 230.5,296.5C 214.429,268.697 198.596,240.697 183,212.5C 175.686,203.645 168.02,203.311 160,211.5C 151.299,226.706 142.799,242.039 134.5,257.5C 96.5044,258.667 58.5044,258.833 20.5,258C 9.91488,234.758 2.91488,210.592 -0.5,185.5C -0.5,173.833 -0.5,162.167 -0.5,150.5C 8.25314,95.5152 38.2531,57.0152 89.5,35C 148.53,16.8814 199.03,30.3814 241,75.5C 246.028,82.3624 250.862,89.3624 255.5,96.5C 287.671,45.4157 334.004,22.5824 394.5,28C 451.893,39.7233 489.393,73.5567 507,129.5C 508.731,136.59 510.231,143.59 511.5,150.5 Z"/></g>
<g><path style="opacity:0.985" fill="#3988ff" d="M 311.5,219.5 C 312.497,219.47 313.164,219.97 313.5,221C 322,244.5 330.5,268 339,291.5C 341.555,295.867 345.388,298.367 350.5,299C 388.833,299.333 427.167,299.667 465.5,300C 440.657,332.181 412.99,361.847 382.5,389C 344.22,422.623 304.22,453.956 262.5,483C 257.035,485.091 251.701,484.758 246.5,482C 181.527,437.537 122.027,386.37 68,328.5C 60.1386,319.273 52.6386,309.773 45.5,300C 80.5,299.667 115.5,299.333 150.5,299C 154.048,298.559 157.048,297.059 159.5,294.5C 163.264,287.962 167.264,281.628 171.5,275.5C 188.253,304.671 204.753,334.005 221,363.5C 228.007,371.131 235.34,371.464 243,364.5C 266.391,316.387 289.224,268.053 311.5,219.5 Z"/></g>
</svg>
