<?xml version="1.0" encoding="UTF-8" standalone="no"?>
<!-- Created with Inkscape (http://www.inkscape.org/) -->

<svg
   width="134.97597mm"
   height="120.66417mm"
   viewBox="0 0 134.97597 120.66417"
   version="1.1"
   id="svg1"
   xml:space="preserve"
   xmlns="http://www.w3.org/2000/svg"
   xmlns:svg="http://www.w3.org/2000/svg"><defs
     id="defs1" /><g
     id="layer1"
     transform="translate(-37.690509,-69.664482)"><path
       style="fill:#3a89ff;stroke:none"
       d="m 98.562549,140.59494 c 6.070821,-10.40118 10.292241,-22.03442 15.675741,-32.80833 1.34077,-2.68326 3.22679,-9.979595 7.07842,-9.708132 3.51674,0.247861 4.25696,5.258252 5.24083,7.856042 2.0253,5.34754 3.99171,10.73924 5.87167,16.13958 0.84348,2.42293 1.50879,6.0533 3.02067,8.11798 0.84509,1.15408 3.64936,0.61327 4.91683,0.61327 h 13.75834 9.78958 c 1.1843,0 2.83676,0.33308 3.5633,-0.83295 2.16843,-3.48014 3.25955,-8.42731 4.10961,-12.39621 3.68158,-17.18894 -1.99632,-34.769365 -17.99166,-43.692794 -13.29182,-7.415197 -31.01365,-4.804423 -41.80417,5.858395 -2.41184,2.383301 -5.1627,5.222719 -6.35,8.465649 h -0.52916 C 103.40818,84.098445 99.529229,80.294721 96.181299,77.625124 85.16189,68.838403 69.213908,66.934749 56.758384,73.883396 40.773951,82.800737 35.089712,100.40358 38.766718,117.57619 c 0.850722,3.97309 1.937168,8.90962 4.109616,12.39621 0.991904,1.59192 5.08253,0.83295 6.738301,0.83295 H 66.81255 c 1.527388,0 4.93738,0.63696 6.141356,-0.42423 2.571843,-2.26684 4.282515,-7.41804 5.948838,-10.42368 0.829116,-1.49553 2.083605,-3.40644 4.049389,-3.30342 2.851283,0.14943 4.203885,3.83661 5.352709,5.94925 3.102358,5.7051 6.006069,13.09828 10.257707,17.99167 M 119.9938,121.01577 c -4.38828,10.55428 -9.64964,20.99116 -14.75134,31.22083 -1.25616,2.5188 -3.19429,9.54185 -7.209078,7.93485 -2.433423,-0.97403 -3.559731,-4.23087 -4.7625,-6.34735 -2.346332,-4.12877 -4.606473,-8.30685 -6.953479,-12.43541 -1.069068,-1.88057 -1.978969,-4.40566 -3.629853,-5.82084 -1.13773,1.94745 -2.076832,4.68543 -4.233334,5.73673 -2.203499,1.07421 -6.052852,0.34869 -8.466666,0.34869 H 49.879218 c 2.570746,5.16201 7.647696,9.68756 11.637786,13.75813 8.736159,8.91237 18.244283,16.90118 28.049712,24.60645 3.289338,2.58482 6.65091,5.08663 10.054166,7.5198 1.585148,1.13331 3.248738,2.69704 5.291668,2.7865 2.20582,0.0966 3.86273,-1.38272 5.55625,-2.59622 3.30519,-2.36838 6.58211,-4.79416 9.78958,-7.29319 10.12122,-7.88573 19.81355,-16.16667 28.8406,-25.28772 3.81131,-3.85101 9.14158,-8.479 11.37607,-13.49375 H 137.4563 c -2.50377,0 -6.87058,0.8375 -8.9844,-0.70188 -1.71216,-1.24686 -2.21784,-3.76009 -2.90777,-5.64812 -1.70098,-4.65485 -3.92433,-9.46224 -5.04117,-14.2875 z"
       id="path3" /></g></svg>
